<?xml version="1.0" encoding="utf-8"?>
<!-- Generator: Adobe Illustrator 16.0.0, SVG Export Plug-In . SVG Version: 6.00 Build 0)  -->
<!DOCTYPE svg PUBLIC "-//W3C//DTD SVG 1.1//EN" "http://www.w3.org/Graphics/SVG/1.1/DTD/svg11.dtd">
<svg version="1.1" id="Capa_1" xmlns="http://www.w3.org/2000/svg" xmlns:xlink="http://www.w3.org/1999/xlink" x="0px" y="0px"
	 width="24px" height="24px" viewBox="0 0 24 24" enable-background="new 0 0 24 24" xml:space="preserve">
<circle fill="#FFFFFF" stroke="#FFFFFF" stroke-miterlimit="10" cx="12.001" cy="10.25" r="9"/>
<g id="Capa_1_1_" display="none">
	<circle display="inline" fill="#9A7D22" cx="12" cy="10.4" r="10"/>
</g>
<g id="Capa_3">
	<path fill="#B5343A" d="M11.997,0.001L11.997,0.001c-5.66-0.085-10.315,4.434-10.4,10.093c0,0.044,0,0.089,0,0.133
		c0,3.126,1.311,5.527,3.563,7.753c2.972,2.929,5.813,5.599,5.813,5.599c0.311,0.3,0.736,0.45,1.167,0.412v-0.412l0,0V24
		c0.367-0.079,0.715-0.232,1.021-0.455c0,0,2.741-2.74,5.696-5.652c2.254-2.221,3.547-4.533,3.547-7.677
		C22.376,4.547,17.759-0.027,12.09,0C12.06,0,12.028,0,11.997,0.001z M11.997,19c-4.946,0.003-8.957-4.004-8.959-8.949
		c-0.003-4.945,4.003-8.956,8.948-8.959c4.944-0.002,8.956,4.003,8.958,8.949c0,0.003,0,0.007,0,0.011
		C20.939,14.995,16.936,19,11.991,19H11.997z"/>
</g>
<g>
	<circle fill="none" stroke="#B5343A" stroke-miterlimit="10" cx="11.997" cy="10.25" r="5"/>
	
		<polygon fill="#B5343A" stroke="#B5343A" stroke-width="0.75" stroke-linecap="round" stroke-linejoin="round" stroke-miterlimit="10" points="
		8.042,7.197 9.968,7.197 10.396,5.515 	"/>
	
		<polygon fill="#B5343A" stroke="#B5343A" stroke-width="0.75" stroke-linecap="round" stroke-linejoin="round" stroke-miterlimit="10" points="
		13.847,5.435 14.412,7.276 16.146,7.189 	"/>
	
		<polygon fill="#B5343A" stroke="#B5343A" stroke-width="0.75" stroke-linecap="round" stroke-linejoin="round" stroke-miterlimit="10" points="
		17.147,10.505 15.407,11.33 15.743,13.033 	"/>
	
		<polygon fill="#B5343A" stroke="#B5343A" stroke-width="0.75" stroke-linecap="round" stroke-linejoin="round" stroke-miterlimit="10" points="
		13.437,15.25 11.981,13.988 10.557,14.98 	"/>
	
		<polygon fill="#B5343A" stroke="#B5343A" stroke-width="0.75" stroke-linecap="round" stroke-linejoin="round" stroke-miterlimit="10" points="
		8.238,13.342 8.473,11.43 6.854,10.802 	"/>
	<polygon fill="#B5343A" stroke="#B5343A" stroke-width="0.75" stroke-miterlimit="10" points="10.926,8.417 13.2,8.417 
		13.847,10.505 11.997,11.77 10.396,10.505 	"/>
	<line fill="none" stroke="#B5343A" stroke-width="0.5" stroke-miterlimit="10" x1="9.968" y1="7.197" x2="10.926" y2="8.417"/>
	<line fill="none" stroke="#B5343A" stroke-width="0.5" stroke-miterlimit="10" x1="8.473" y1="11.43" x2="10.396" y2="10.505"/>
	<line fill="none" stroke="#B5343A" stroke-width="0.5" stroke-miterlimit="10" x1="11.981" y1="13.988" x2="11.997" y2="11.77"/>
	<line fill="none" stroke="#B5343A" stroke-width="0.5" stroke-miterlimit="10" x1="13.847" y1="10.505" x2="15.407" y2="11.33"/>
	<line fill="none" stroke="#B5343A" stroke-width="0.5" stroke-miterlimit="10" x1="14.412" y1="7.276" x2="13.2" y2="8.417"/>
</g>
</svg>
