<?xml version="1.0" encoding="utf-8"?>
<!-- Generator: Adobe Illustrator 16.0.0, SVG Export Plug-In . SVG Version: 6.00 Build 0)  -->
<!DOCTYPE svg PUBLIC "-//W3C//DTD SVG 1.1//EN" "http://www.w3.org/Graphics/SVG/1.1/DTD/svg11.dtd">
<svg version="1.1" id="Capa_1" xmlns="http://www.w3.org/2000/svg" xmlns:xlink="http://www.w3.org/1999/xlink" x="0px" y="0px"
	 width="24px" height="24px" viewBox="0 0 24 24" enable-background="new 0 0 24 24" xml:space="preserve">
<circle fill="#FFFFFF" stroke="#FFFFFF" stroke-miterlimit="10" cx="12.001" cy="10.25" r="9"/>
<g id="Capa_1_1_" display="none">
	<circle display="inline" fill="#9A7D22" cx="12" cy="10.4" r="10"/>
</g>
<g id="Capa_3">
	<path fill="#B5343A" d="M11.997,0.001L11.997,0.001c-5.66-0.085-10.315,4.434-10.4,10.093c0,0.044,0,0.089,0,0.133
		c0,3.126,1.311,5.527,3.563,7.753c2.972,2.929,5.813,5.599,5.813,5.599c0.311,0.3,0.736,0.45,1.167,0.412v-0.412l0,0V24
		c0.367-0.079,0.715-0.232,1.021-0.455c0,0,2.741-2.74,5.696-5.652c2.254-2.221,3.547-4.533,3.547-7.677
		C22.376,4.547,17.759-0.027,12.09,0C12.06,0,12.028,0,11.997,0.001z M11.997,19c-4.946,0.003-8.957-4.004-8.959-8.949
		c-0.003-4.945,4.003-8.956,8.948-8.959c4.944-0.002,8.956,4.003,8.958,8.949c0,0.003,0,0.007,0,0.011
		C20.939,14.995,16.936,19,11.991,19H11.997z"/>
</g>
<circle fill="#B5343A" cx="9.997" cy="11.595" r="1"/>
<line fill="none" x1="9.997" y1="11.595" x2="8.35" y2="16.516"/>
<line fill="none" stroke="#B5343A" stroke-miterlimit="10" x1="9.997" y1="11.595" x2="11.522" y2="16.516"/>
<line fill="none" stroke="#B5343A" stroke-miterlimit="10" x1="9.76" y1="11.595" x2="8.234" y2="16.516"/>
<path fill="#B5343A" d="M11.136,8.695c1.126,0,2.042,0.912,2.042,2.04c0.021,0.2,0.201,0.347,0.4,0.327
	c0.173-0.018,0.31-0.155,0.327-0.327c-0.008-1.524-1.245-2.755-2.769-2.758c-0.201,0.02-0.348,0.2-0.327,0.402
	c0.018,0.172,0.154,0.309,0.327,0.327V8.695z"/>
<path fill="#B5343A" d="M11.372,5.736c-0.213,0.012-0.375,0.194-0.363,0.407c0,0.003,0.001,0.006,0.001,0.009
	c0.012,0.212,0.193,0.375,0.406,0.363c0.004,0,0.009,0,0.014-0.001c1.158-0.089,2.287,0.397,3.016,1.301
	c0.585,0.848,0.864,1.868,0.795,2.896c-0.009,0.104,0.024,0.207,0.092,0.285c0.137,0.164,0.38,0.188,0.544,0.051l0,0
	c0.085-0.068,0.137-0.167,0.144-0.274c0.086-1.229-0.257-2.448-0.969-3.452C14.16,6.221,12.785,5.628,11.372,5.736z"/>
<path fill="#B5343A" d="M10.881,3.243c-0.212,0.015-0.373,0.198-0.359,0.41c0,0.004,0,0.007,0.001,0.011
	c0.007,0.104,0.057,0.199,0.135,0.266c0.078,0.068,0.181,0.102,0.285,0.093c3.459-0.285,6.492,2.289,6.776,5.747
	c0.031,0.383,0.027,0.768-0.011,1.148c-0.011,0.104,0.021,0.207,0.085,0.287c0.064,0.08,0.158,0.13,0.262,0.142
	c0.211,0.024,0.403-0.126,0.428-0.339c0-0.003,0-0.004,0-0.008c0.397-3.88-2.426-7.348-6.308-7.744
	C11.746,3.213,11.313,3.208,10.881,3.243z"/>
</svg>
